<?xml version="1.0" encoding="UTF-8"?>
<svg width="22px" height="22px" viewBox="0 0 22 22" version="1.1" xmlns="http://www.w3.org/2000/svg" xmlns:xlink="http://www.w3.org/1999/xlink">
    <!-- Generator: Sketch 50 (54983) - http://www.bohemiancoding.com/sketch -->
    <title></title>
    <desc>Created with Sketch.</desc>
    <defs></defs>
    <g id="Symbols" stroke="none" stroke-width="1" fill="none" fill-rule="evenodd">
        <g id="nav/footer" transform="translate(-1323.000000, -60.000000)" fill="#3B5998">
            <path d="M1340.41074,60.3571194 C1342.62893,60.3571194 1344.4286,62.1567868 1344.4286,64.3749814 L1344.4286,77.7678545 C1344.4286,79.9860491 1342.62893,81.7857164 1340.41074,81.7857164 L1337.78796,81.7857164 L1337.78796,73.4849253 L1340.5642,73.4849253 L1340.98272,70.2483143 L1337.78796,70.2483143 L1337.78796,68.1835797 C1337.78796,67.2488687 1338.03908,66.6210778 1339.39232,66.6210778 L1341.09433,66.6071269 L1341.09433,63.7192886 C1340.80136,63.6774359 1339.78294,63.5937304 1338.61107,63.5937304 C1336.14176,63.5937304 1334.43975,65.1004287 1334.43975,67.8627087 L1334.43975,70.2483143 L1331.64956,70.2483143 L1331.64956,73.4849253 L1334.43975,73.4849253 L1334.43975,81.7857164 L1327.01786,81.7857164 C1324.79967,81.7857164 1323,79.9860491 1323,77.7678545 L1323,64.3749814 C1323,62.1567868 1324.79967,60.3571194 1327.01786,60.3571194 L1340.41074,60.3571194 Z" id=""></path>
        </g>
    </g>
</svg>