<?xml version="1.0" encoding="UTF-8"?>
<svg width="23px" height="18px" viewBox="0 0 23 18" version="1.1" xmlns="http://www.w3.org/2000/svg" xmlns:xlink="http://www.w3.org/1999/xlink">
    <!-- Generator: Sketch 50 (54983) - http://www.bohemiancoding.com/sketch -->
    <title></title>
    <desc>Created with Sketch.</desc>
    <defs></defs>
    <g id="Symbols" stroke="none" stroke-width="1" fill="none" fill-rule="evenodd">
        <g id="nav/footer" transform="translate(-1385.000000, -62.000000)" fill="#00ACED">
            <path d="M1407.60047,64.2633741 C1406.98663,65.1562323 1406.21933,65.9514341 1405.34043,66.593176 C1405.35438,66.7884887 1405.35438,66.9838014 1405.35438,67.1791142 C1405.35438,73.1361525 1400.82033,80 1392.53349,80 C1389.98047,80 1387.60882,79.2606018 1385.61384,77.9771181 C1385.97656,78.0189709 1386.32534,78.0329218 1386.70201,78.0329218 C1388.8086,78.0329218 1390.74777,77.3214254 1392.29633,76.1076963 C1390.3153,76.0658435 1388.65514,74.7684089 1388.08315,72.9826925 C1388.36217,73.0245453 1388.64119,73.0524471 1388.93416,73.0524471 C1389.33873,73.0524471 1389.74331,72.9966434 1390.11998,72.8989871 C1388.05525,72.4804598 1386.5067,70.6668416 1386.5067,68.4765488 C1386.5067,68.4625979 1386.5067,68.434696 1386.5067,68.4207451 C1387.10659,68.755567 1387.80413,68.9648306 1388.54353,68.9927324 C1387.3298,68.1835797 1386.5346,66.8024396 1386.5346,65.2399378 C1386.5346,64.4028832 1386.75781,63.6355832 1387.14844,62.9659395 C1389.36663,65.7003178 1392.7009,67.4860342 1396.43975,67.6813469 C1396.36999,67.3465251 1396.32814,66.9977524 1396.32814,66.6489796 C1396.32814,64.1657177 1398.33707,62.1428359 1400.83428,62.1428359 C1402.13172,62.1428359 1403.30359,62.6869213 1404.1267,63.5658286 C1405.14511,63.3705159 1406.12168,62.9938413 1406.98663,62.4776577 C1406.65181,63.5239759 1405.94032,64.4028832 1405.0056,64.9609196 C1405.91241,64.8632632 1406.79132,64.6121468 1407.60047,64.2633741 Z" id=""></path>
        </g>
    </g>
</svg>