<!-- Generator: Adobe Illustrator 22.1.0, SVG Export Plug-In  -->
<svg version="1.1"
	 xmlns="http://www.w3.org/2000/svg" xmlns:xlink="http://www.w3.org/1999/xlink" xmlns:a="http://ns.adobe.com/AdobeSVGViewerExtensions/3.0/"
	 x="0px" y="0px" width="229px" height="38.5px" viewBox="0 0 229 38.5" style="enable-background:new 0 0 229 38.5;"
	 xml:space="preserve">
<style type="text/css">
	.st0{fill:#47210D;}
	.st1{fill:#FAED00;}
	.st2{fill:#8FC322;}
	.st3{fill:#E60012;}
</style>
<defs>
</defs>
<g>
	<g>
		<polygon class="st0" points="163.5,20.7 153.5,20.7 152.8,17.1 162,17.1 162,9.1 151.2,9.1 150.2,3.8 139.8,3.8 140.8,9.1 
			134.9,9.1 134.9,17.1 142.4,17.1 143.1,20.7 133.4,20.7 133.4,28.6 144.7,28.6 146.7,38.3 157,38.3 155.1,28.6 163.5,28.6 		"/>
		<path class="st0" d="M83.5,13.4V3.8H73.1v34.5h10.4V23.3l13.4,3.6C96.9,26.9,97.3,18.5,83.5,13.4z"/>
		<path class="st0" d="M229,37.7l-7.3-8.8c2.9-3.6,4.9-8.5,5-15.4h0V7.4h-23.8v6.2h13.5c-0.3,21.9-17.2,24.7-17.2,24.7
			s9.3,0.3,17-4.6C223.8,40.5,229,37.7,229,37.7z"/>
		<path class="st0" d="M58.6,3.8H48.2v6.3H37.5v3.2h10.7v25h10.4v-25h11.5v-3.2H58.6V3.8z M64.5,3.7h-4v4.6h4V3.7z M66.1,3.7v4.6h4
			V3.7H66.1z M70.1,35.8V15.4h-9.7C60.4,33.7,70.1,35.8,70.1,35.8z M37.5,35.8c0,0,9.7-2.1,9.7-20.4h-9.7V35.8z"/>
		<path class="st0" d="M121.6,24V3.8h-10.4v34.5C131.2,33.8,131,19,131,19L121.6,24z M99.5,20.3c0,14.5-4.6,18.2-4.6,18.2
			s15-1.8,15-17.8V3.8H99.5V20.3z"/>
		<g>
			<g>
				<path class="st0" d="M203.9,5.1c0-2.8-2.3-5.1-5.1-5.1c-2.8,0-5.1,2.3-5.1,5.1c0,0.8,0.2,1.6,0.6,2.3h-22.5v6.2h15.5
					c-0.2,21.9-16.5,24.7-16.5,24.7s27.9,0.9,28.2-24.7h0v-3.5C201.8,10,203.9,7.8,203.9,5.1z M198.8,7c-1.1,0-1.9-0.9-1.9-1.9
					c0-1.1,0.9-1.9,1.9-1.9c1.1,0,1.9,0.9,1.9,1.9C200.7,6.1,199.8,7,198.8,7z"/>
			</g>
		</g>
		<path class="st0" d="M165.9,20.7v8h10c5.9,0,6.5-8,6.5-8H165.9z"/>
	</g>
	<rect x="6.4" y="6.6" class="st0" width="5.5" height="4.9"/>
	<rect x="5.9" y="3.5" class="st0" width="6.5" height="2"/>
	<g>
		<path class="st1" d="M32.3,27.7c0,6-4.8,10.8-10.8,10.8c-6,0-10.8-4.8-10.8-10.8c0-6,4.8-10.8,10.8-10.8
			C27.5,17,32.3,21.8,32.3,27.7z"/>
	</g>
	<path class="st0" d="M8.8,27.7c0-5.8,3.9-10.7,9.2-12.2c-0.6-1.7-2.2-2.9-4.1-2.9H4.3c-2.4,0-4.3,1.9-4.3,4.3v21.4h14.5
		C11.1,36,8.8,32.2,8.8,27.7z"/>
	<path class="st2" d="M22.3,14.9c0,0,2-5.9,6.6-5.2C28.9,9.7,28.2,14.9,22.3,14.9z"/>
	<g>
		<path class="st3" d="M17.5,23v1.8h-1.5v8h-2v-8h-1.5V23H17.5z"/>
		<path class="st3" d="M20.2,23v3.9h2V23h2v9.9h-2v-4.2h-2v4.2h-2V23H20.2z"/>
		<path class="st3" d="M29.4,23v1.8h-2V27h1.7v1.8h-1.7V31h2v1.8h-4V23H29.4z"/>
	</g>
</g>
</svg>
